# xmcd
#
# Track frame offsets: 
#        150
#        18655
#        50137
#        65632
#        94500
#        118482
#        140967
#
# Disc length: 2163 seconds
#
# Revision: 0
# Processed by: cddbd v1.5.1PL2 Copyright (c) Steve Scherf et al.
# Submitted via: ExactAudioCopy v0.95a5
#
DISCID=70087107
DTITLE=Chicago Beau - Bluesville Memories
DYEAR=1996
DGENRE=Blues
TTITLE0=Please Be Careful How You Vote
TTITLE1=I Am A Black Snake
TTITLE2=Hungover
TTITLE3=You Can't Send Children To School
TTITLE4=Tribute To Elmore And J.B.
TTITLE5=Black Names Ringing
TTITLE6=You Are The First Thing On My Mind
EXTD=
EXTT0=
EXTT1=
EXTT2=
EXTT3=
EXTT4=
EXTT5=
EXTT6=
PLAYORDER=
